<svg width="29" height="29" viewBox="0 0 29 29" fill="none" xmlns="http://www.w3.org/2000/svg">
<path fill-rule="evenodd" clip-rule="evenodd" d="M9.42763 9.42837C9.75308 9.10292 10.2807 9.10294 10.6061 9.42837L18.8557 17.6779C19.1812 18.0034 19.1812 18.531 18.8557 18.8565C18.5303 19.1819 18.0027 19.1819 17.6772 18.8565L9.42763 10.6069C9.1022 10.2814 9.10219 9.75381 9.42763 9.42837Z" fill="#676767"/>
<path fill-rule="evenodd" clip-rule="evenodd" d="M9.42849 18.8558C9.10304 18.5304 9.10305 18.0027 9.42849 17.6773L17.6781 9.42772C18.0035 9.10228 18.5311 9.10228 18.8566 9.42772C19.182 9.75317 19.182 10.2808 18.8566 10.6062L10.607 18.8558C10.2816 19.1812 9.75393 19.1813 9.42849 18.8558Z" fill="#676767"/>
</svg>
