<svg width="34" height="34" viewBox="0 0 34 34" fill="none" xmlns="http://www.w3.org/2000/svg">
<path d="M9.07666 13.5762H10.997V15.4965H9.07666V13.5762Z" fill="#55ACEE"/>
<path d="M32.4701 14.5754C31.5782 13.1549 30.3484 11.9822 28.8948 11.1607L27.9272 7.43802H25.0214C24.5335 3.84274 21.444 1.0625 17.717 1.0625H16.4127C12.3477 1.0625 9.04059 4.36958 9.04059 8.43437V10.4255H6.0728L5.10524 14.1476C3.65157 14.9692 2.42175 16.1427 1.52994 17.5629C0.529175 19.1574 0 21.0002 0 22.8915C0 28.4258 4.5024 32.9282 10.0367 32.9282C13.5775 32.9282 16.6952 31.0854 18.4827 28.3083C20.0594 29.3401 21.9426 29.9404 23.9633 29.9404C29.4976 29.9404 34 25.438 34 19.9037C34 18.0124 33.4708 16.1704 32.4701 14.5754ZM23.9633 27.9482C22.5667 27.9482 21.2526 27.591 20.1071 26.9622L21.1431 25.3311C21.9932 25.7802 22.9613 26.0338 23.9872 26.0338C27.3615 26.0338 30.1059 23.2886 30.1059 19.9151C30.1059 16.5416 27.3615 13.7964 23.9872 13.7964C21.5195 13.7964 19.388 15.2654 18.4218 17.3751C18.0672 18.1494 17.8692 19.0093 17.8692 19.9151C17.8692 21.5442 18.5087 23.0261 19.5499 24.1239L18.4895 25.7934C18.2399 25.5617 18.0047 25.314 17.7862 25.0515C16.6208 23.6557 15.9188 21.8601 15.9188 19.9037C15.9188 19.1561 16.0205 18.4262 16.2145 17.7302C16.4104 17.0252 16.7004 16.3551 17.075 15.7362C17.8399 14.4719 18.9556 13.4205 20.3361 12.722L20.7374 12.5189L21.5403 9.43021H26.3866L27.1887 12.5189L27.5897 12.722C30.3152 14.1007 32.0078 16.8532 32.0078 19.9037C32.0078 24.3397 28.3993 27.9482 23.9633 27.9482ZM5.92546 22.9021C5.92546 20.6223 7.78094 18.767 10.0613 18.767C12.3417 18.767 14.1964 20.6223 14.1964 22.9021C14.1964 25.1825 12.3417 27.0377 10.0613 27.0377C7.78094 27.0377 5.92546 25.1825 5.92546 22.9021ZM19.8614 19.9151C19.8614 17.6399 21.7122 15.7886 23.9872 15.7886C26.2629 15.7886 28.1137 17.6399 28.1137 19.9151C28.1137 22.1901 26.2629 24.0417 23.9872 24.0417C21.7122 24.0417 19.8614 22.1901 19.8614 19.9151ZM11.0328 8.43437C11.0328 5.46814 13.4462 3.05469 16.4127 3.05469H17.7172C20.3431 3.05469 22.5343 4.94623 23.003 7.43802H19.9997L19.0321 11.1607C17.6109 11.9643 16.4023 13.103 15.5165 14.481C15.3378 14.3642 15.1546 14.2532 14.9679 14.1476L14.0003 10.4255H11.0328V8.43437ZM1.99219 22.8915C1.99219 19.8402 3.68477 17.0882 6.41028 15.709L6.81131 15.5056L7.61337 12.4177H12.4597L13.2626 15.5056L13.6639 15.709C13.9938 15.8763 14.3085 16.0628 14.6068 16.2688C14.3557 16.9123 14.1731 17.5808 14.0607 18.2643C12.9871 17.3364 11.5887 16.7748 10.0613 16.7748C6.68187 16.7748 3.93327 19.5232 3.93327 22.9021C3.93327 24.5343 4.57477 26.0191 5.61859 27.1181L5.61885 27.1184L4.5631 28.7806C2.98206 27.3116 1.99219 25.2147 1.99219 22.8915ZM10.0367 30.936C8.64008 30.936 7.32596 30.578 6.18045 29.9497L7.21182 28.3262C8.06317 28.7757 9.03255 29.0299 10.0613 29.0299C12.521 29.0299 14.6465 27.5736 15.6208 25.4772C16 26.0442 16.4368 26.5711 16.9217 27.0484C15.5105 29.3767 12.9526 30.936 10.0367 30.936Z" fill="#55ACEE"/>
<path d="M23.0029 10.589H24.9235V12.5096H23.0029V10.589Z" fill="#55ACEE"/>
</svg>
