<svg width="18" height="18" viewBox="0 0 18 18" fill="none" xmlns="http://www.w3.org/2000/svg">
<path d="M9.42859 5.57153V9.85723L13.0971 12.0344L13.7143 10.993L10.7143 9.21437V5.57153H9.42859Z" fill="white"/>
<path d="M10.2814 1.28577C6.01714 1.28577 2.57143 4.74004 2.57143 9.00005H0L3.33856 12.3386L3.39854 12.4629L6.85716 9.00005H4.28573C4.28573 5.68721 6.97287 3.00007 10.2857 3.00007C13.5986 3.00007 16.2857 5.68721 16.2857 9.00005C16.2857 12.3129 13.5986 15 10.2857 15C8.62714 15 7.13142 14.3229 6.04716 13.2386L4.83429 14.4515C6.22716 15.8486 8.15143 16.7143 10.2814 16.7143C14.5457 16.7143 18 13.2601 18 9.00005C18 4.74004 14.5457 1.28577 10.2814 1.28577Z" fill="white"/>
</svg>
