<svg width="15" height="15" viewBox="0 0 15 15" fill="none" xmlns="http://www.w3.org/2000/svg">
  <g clip-path="url(#clip0)">
    <path
      d="M13.1645 13.2543C13.1276 13.1995 13.0685 13.1638 13.0029 13.1567H12.9729C9.08007 13.1608 5.92094 10.0084 5.91681 6.11557C5.9144 3.85903 6.99254 1.73774 8.81684 0.409627C8.91953 0.340897 8.94706 0.201941 8.87833 0.0992603C8.8365 0.0367537 8.76604 -0.000545383 8.69081 6.0297e-06L8.69238 0.00158149C4.55068 0.00114824 1.19282 3.35831 1.19238 7.50001C1.19195 11.6417 4.54911 14.9996 8.69081 15C10.2765 15.0002 11.8215 14.4977 13.1037 13.5648C13.2062 13.4958 13.2334 13.3568 13.1645 13.2543Z"
      fill="#FF3359" />
    <path
      d="M10.7574 8.79706C10.7307 8.77433 10.699 8.75826 10.6649 8.75003L10.6633 8.74688L10.0584 8.60193L9.73382 8.07573C9.66985 7.97002 9.53232 7.93615 9.4266 8.00011C9.39564 8.01882 9.36969 8.04477 9.35098 8.07573L9.02328 8.60193L8.42776 8.74688C8.30641 8.77012 8.22689 8.88733 8.25013 9.00868C8.25745 9.047 8.2747 9.08276 8.30015 9.11238L8.70347 9.58502L8.6562 10.2058C8.64521 10.3288 8.73604 10.4375 8.85912 10.4485C8.89752 10.4519 8.93616 10.4454 8.97129 10.4295L9.54791 10.1931L10.1119 10.4247C10.2246 10.4755 10.357 10.4253 10.4078 10.3126C10.4229 10.2791 10.4295 10.2424 10.427 10.2058L10.3798 9.58502L10.7831 9.11238C10.8631 9.01821 10.8516 8.87705 10.7574 8.79706Z"
      fill="#FF3359" />
    <path
      d="M11.7295 3.08757C11.7027 3.06484 11.6711 3.04877 11.637 3.04054L11.6401 3.04842L10.6066 2.79634L10.0489 1.8936C9.98491 1.78789 9.84737 1.75402 9.74166 1.81798C9.7107 1.83669 9.68475 1.86265 9.66604 1.8936L9.10674 2.79949L8.08268 3.04999C7.962 3.07654 7.88571 3.19588 7.91226 3.31656C7.91915 3.34783 7.93266 3.37729 7.95192 3.4029L8.6404 4.21426L8.56005 5.27612C8.54906 5.3992 8.63989 5.50787 8.76297 5.51886C8.80138 5.52229 8.84001 5.51575 8.87515 5.49984L9.85982 5.09652L10.8319 5.49511C10.9445 5.54584 11.077 5.49566 11.1278 5.38301C11.1428 5.3495 11.1495 5.31279 11.147 5.27612L11.0666 4.21426L11.7551 3.4029C11.8351 3.30872 11.8237 3.16756 11.7295 3.08757Z"
      fill="#FF3359" />
    <path
      d="M13.7288 6.70978C13.702 6.68705 13.6704 6.67098 13.6363 6.66275L13.63 6.6596L13.1573 6.54617L12.9068 6.1397C12.8429 6.03398 12.7053 6.00011 12.5996 6.06408C12.5687 6.08278 12.5427 6.10874 12.524 6.1397L12.2766 6.55405L11.8198 6.6659C11.6987 6.69028 11.6202 6.80821 11.6446 6.92936C11.6517 6.96508 11.6675 6.99848 11.6906 7.02669L12.0057 7.39377L11.9694 7.86641C11.9584 7.98949 12.0493 8.09816 12.1724 8.10915C12.2108 8.11258 12.2494 8.10604 12.2845 8.09013L12.7288 7.90737L13.1605 8.08382C13.2731 8.13455 13.4056 8.08438 13.4563 7.97173C13.4714 7.93821 13.4781 7.9015 13.4756 7.86483L13.4393 7.39219L13.7544 7.02511C13.8344 6.93094 13.823 6.78977 13.7288 6.70978Z"
      fill="#FF3359" />
  </g>
  <defs>
    <clipPath id="clip0">
      <rect width="15" height="15" fill="white" />
    </clipPath>
  </defs>
</svg>