<svg width="20" height="20" viewBox="0 0 20 20" fill="none" xmlns="http://www.w3.org/2000/svg">
<path fill-rule="evenodd" clip-rule="evenodd" d="M9.99992 2.50004C5.85778 2.50004 2.49992 5.8579 2.49992 10C2.49992 14.1422 5.85778 17.5 9.99992 17.5C14.1421 17.5 17.4999 14.1422 17.4999 10C17.4999 5.8579 14.1421 2.50004 9.99992 2.50004ZM0.833252 10C0.833252 4.93743 4.93731 0.833374 9.99992 0.833374C15.0625 0.833374 19.1666 4.93743 19.1666 10C19.1666 15.0626 15.0625 19.1667 9.99992 19.1667C4.93731 19.1667 0.833252 15.0626 0.833252 10Z" fill="#FF3359"/>
<path fill-rule="evenodd" clip-rule="evenodd" d="M5.83325 9.99996C5.83325 9.53972 6.20635 9.16663 6.66659 9.16663H13.3333C13.7935 9.16663 14.1666 9.53972 14.1666 9.99996C14.1666 10.4602 13.7935 10.8333 13.3333 10.8333H6.66659C6.20635 10.8333 5.83325 10.4602 5.83325 9.99996Z" fill="#FF3359"/>
<path fill-rule="evenodd" clip-rule="evenodd" d="M9.99959 14.1666C9.53936 14.1666 9.16626 13.7935 9.16626 13.3333L9.16626 6.66663C9.16626 6.20639 9.53936 5.83329 9.99959 5.83329C10.4598 5.83329 10.8329 6.20639 10.8329 6.66663L10.8329 13.3333C10.8329 13.7935 10.4598 14.1666 9.99959 14.1666Z" fill="#FF3359"/>
</svg>
