 <svg width="20" height="20" viewBox="0 0 20 20" fill="none" xmlns="http://www.w3.org/2000/svg">
<g clip-path="url(#clip0)">
<path d="M14.6058 4.98223C14.2473 4.84281 13.8735 4.73672 13.4946 4.65551C14.0435 4.20902 14.9794 3.17547 14.9794 1.52734V0.585938C14.9794 0.262344 14.7171 0 14.3935 0H13.4521C12.1773 0 10.7988 0.630977 10.0003 1.94012C9.2019 0.631289 7.82373 0 6.54838 0H5.60698C5.28338 0 5.02104 0.262344 5.02104 0.585938V1.52734C5.02104 3.17539 5.95682 4.20895 6.5058 4.65551C6.12686 4.73672 5.75307 4.84281 5.39459 4.98223C2.35549 6.1641 2.51061 9.01562 2.51061 9.37238C2.51061 12.0257 3.40385 14.8003 5.43076 17.1312C6.89951 18.8203 8.77854 20 10.0002 20C11.2218 20 13.1009 18.8203 14.5696 17.1312C16.5984 14.7981 17.4898 12.0235 17.4898 9.37238C17.4898 8.9802 17.6285 6.15773 14.6058 4.98223ZM10.5861 4.03777C10.5861 2.46344 11.8644 1.17188 13.452 1.17188H13.8075V1.52734C13.8075 3.10145 12.5291 4.39324 10.9416 4.39324H10.5861V4.03777ZM6.19291 1.52734V1.17188H6.54838C8.13541 1.17188 9.41428 2.46281 9.41428 4.03777V4.39324H9.05881C7.47229 4.39324 6.19291 3.10234 6.19291 1.52734ZM13.6853 16.3623C12.1537 18.1237 10.5838 18.8281 10.0002 18.8281C9.41592 18.8281 7.84537 18.1222 6.31506 16.3623C4.50494 14.2805 3.68248 11.7939 3.68248 9.37238C3.68248 7.6893 4.36147 6.64137 5.81936 6.07441C7.12901 5.56508 8.7885 5.56508 10.0002 5.56508C11.2119 5.56508 12.8714 5.56508 14.1811 6.07441C15.6389 6.64137 16.318 7.6893 16.318 9.37238C16.3179 11.796 15.4937 14.2826 13.6853 16.3623Z" fill="white"/>
<path d="M8.11743 12.4688C8.44104 12.4688 8.70337 12.2064 8.70337 11.8828C8.70337 11.5592 8.44104 11.2969 8.11743 11.2969C7.79383 11.2969 7.53149 11.5592 7.53149 11.8828C7.53149 12.2064 7.79383 12.4688 8.11743 12.4688Z" fill="white"/>
<path d="M6.23462 9.33081C6.55822 9.33081 6.82056 9.06848 6.82056 8.74487C6.82056 8.42127 6.55822 8.15894 6.23462 8.15894C5.91101 8.15894 5.64868 8.42127 5.64868 8.74487C5.64868 9.06848 5.91101 9.33081 6.23462 9.33081Z" fill="white"/>
<path d="M10.0001 9.33081C10.3237 9.33081 10.5861 9.06848 10.5861 8.74487C10.5861 8.42127 10.3237 8.15894 10.0001 8.15894C9.67652 8.15894 9.41418 8.42127 9.41418 8.74487C9.41418 9.06848 9.67652 9.33081 10.0001 9.33081Z" fill="white"/>
<path d="M10.0001 15.6067C10.3237 15.6067 10.5861 15.3444 10.5861 15.0208C10.5861 14.6971 10.3237 14.4348 10.0001 14.4348C9.67652 14.4348 9.41418 14.6971 9.41418 15.0208C9.41418 15.3444 9.67652 15.6067 10.0001 15.6067Z" fill="white"/>
<path d="M13.7658 9.33081C14.0894 9.33081 14.3517 9.06848 14.3517 8.74487C14.3517 8.42127 14.0894 8.15894 13.7658 8.15894C13.4422 8.15894 13.1799 8.42127 13.1799 8.74487C13.1799 9.06848 13.4422 9.33081 13.7658 9.33081Z" fill="white"/>
<path d="M11.883 12.4688C12.2066 12.4688 12.4689 12.2064 12.4689 11.8828C12.4689 11.5592 12.2066 11.2969 11.883 11.2969C11.5594 11.2969 11.2971 11.5592 11.2971 11.8828C11.2971 12.2064 11.5594 12.4688 11.883 12.4688Z" fill="white"/>
</g>
<defs>
<clipPath id="clip0">
<rect width="20" height="20" fill="white"/>
</clipPath>
</defs>
</svg>     