<svg width="49" height="49" viewBox="0 0 49 49" fill="none" xmlns="http://www.w3.org/2000/svg">
<path d="M0 24.5C0 10.969 10.969 0 24.5 0C38.031 0 49 10.969 49 24.5C49 38.031 38.031 49 24.5 49C10.969 49 0 38.031 0 24.5Z" fill="#55ACEE"/>
<path d="M23.7662 19.9139L23.8176 20.7616L22.9608 20.6578C19.8418 20.2599 17.117 18.9104 14.8034 16.6439L13.6724 15.5194L13.3811 16.3498C12.7641 18.201 13.1583 20.1561 14.4436 21.471C15.1291 22.1976 14.9748 22.3014 13.7924 21.8689C13.3811 21.7305 13.0212 21.6267 12.9869 21.6786C12.8669 21.7997 13.2782 23.3741 13.6038 23.9969C14.0494 24.862 14.9577 25.7097 15.9516 26.2115L16.7914 26.6094L15.7974 26.6267C14.8377 26.6267 14.8034 26.644 14.9063 27.0073C15.249 28.1319 16.6029 29.3257 18.1109 29.8447L19.1734 30.208L18.248 30.7617C16.8771 31.5575 15.2662 32.0073 13.6553 32.0419C12.8841 32.0592 12.25 32.1285 12.25 32.1804C12.25 32.3534 14.3407 33.3222 15.5575 33.7029C19.2077 34.8274 23.5434 34.343 26.7995 32.4226C29.113 31.0558 31.4266 28.3395 32.5062 25.7097C33.0889 24.3083 33.6716 21.7478 33.6716 20.5194C33.6716 19.7235 33.723 19.6197 34.6827 18.6682C35.2482 18.1145 35.7794 17.509 35.8823 17.336C36.0536 17.0073 36.0365 17.0073 35.1625 17.3014C33.7058 17.8204 33.5002 17.7512 34.2199 16.9727C34.7512 16.419 35.3853 15.4156 35.3853 15.1214C35.3853 15.0695 35.1282 15.156 34.8369 15.3118C34.5284 15.4848 33.8429 15.7443 33.3288 15.9L32.4034 16.1941L31.5637 15.6232C31.101 15.3118 30.4498 14.9657 30.107 14.8619C29.233 14.6197 27.8963 14.6543 27.108 14.9311C24.9658 15.7097 23.612 17.7166 23.7662 19.9139Z" fill="white"/>
</svg>