<svg width="17" height="17" viewBox="0 0 17 17" fill="none" xmlns="http://www.w3.org/2000/svg">
<g opacity="0.6" clip-path="url(#clip0)">
<path d="M16.8064 15.8717L12.6575 11.723C13.6888 10.4829 14.3101 8.8904 14.3101 7.15527C14.3101 3.20984 11.1003 0 7.15509 0C3.20975 0 0 3.20984 0 7.15527C0 11.1004 3.20975 14.31 7.15509 14.31C8.89013 14.31 10.4827 13.6888 11.7228 12.6576L15.8717 16.8064C16.0007 16.9355 16.1699 17 16.339 17C16.5082 17 16.6774 16.9355 16.8065 16.8064C17.0646 16.5483 17.0646 16.1298 16.8064 15.8717ZM1.3219 7.15527C1.3219 3.93874 3.93864 1.3219 7.15509 1.3219C10.3715 1.3219 12.9881 3.93874 12.9881 7.15527C12.9881 10.3715 10.3715 12.9881 7.15509 12.9881C3.93864 12.9881 1.3219 10.3715 1.3219 7.15527Z" fill="black"/>
</g>
<defs>
<clipPath id="clip0">
<rect width="17" height="17" fill="white"/>
</clipPath>
</defs>
</svg>
