<svg width="165" height="63" viewBox="0 0 165 63" fill="none" xmlns="http://www.w3.org/2000/svg">
<path d="M45.26 61V50.02H52.55V36.43H45.26V0.969995H23.75L0.98 37.96V50.02H29.69V61H45.26ZM29.69 36.43H16.01L29.69 14.47V36.43ZM82.539 62.08C100.089 62.08 108.279 46.87 108.279 31.03C108.279 15.19 100.089 0.0699959 82.539 0.0699959C64.989 0.0699959 56.799 15.19 56.799 31.03C56.799 46.87 64.989 62.08 82.539 62.08ZM82.539 48.4C75.339 48.4 72.459 41.65 72.459 31.03C72.459 20.41 75.339 13.75 82.539 13.75C89.739 13.75 92.619 20.41 92.619 31.03C92.619 41.65 89.739 48.4 82.539 48.4ZM156.881 61V50.02H164.171V36.43H156.881V0.969995H135.371L112.601 37.96V50.02H141.311V61H156.881ZM141.311 36.43H127.631L141.311 14.47V36.43Z" fill="white"/>
</svg>
