<svg width="34" height="34" viewBox="0 0 34 34" fill="none" xmlns="http://www.w3.org/2000/svg">
<path d="M18.0625 16.3626V14.7689C20.9372 14.182 22.792 11.3759 22.2052 8.50118C21.6184 5.62645 18.8122 3.77173 15.9375 4.35849C13.4645 4.86331 11.688 7.03851 11.6875 9.56255H13.8125C13.8125 7.80212 15.2396 6.37505 17 6.37505C18.7604 6.37505 20.1875 7.80212 20.1875 9.56255C20.1875 11.323 18.7604 12.75 17 12.75H15.9375V16.3625L13.6871 17.5621L14.688 19.4374L17 18.2039L31.875 26.1376V27.6251H2.125V26.1376L5.3125 24.4376L4.31269 22.5623L0 24.8626V29.7501H34V24.8626L18.0625 16.3626Z" fill="#27AF8F"/>
<path d="M9.06274 22.4381L8.0625 20.5632L6.18761 21.5635L7.18785 23.4383L9.06274 22.4381Z" fill="#27AF8F"/>
<path d="M11.8131 18.5623L9.93799 19.5621L10.9378 21.4372L12.8129 20.4374L11.8131 18.5623Z" fill="#27AF8F"/>
</svg>
