<svg width="53" height="53" viewBox="0 0 53 53" fill="none" xmlns="http://www.w3.org/2000/svg">
<g clip-path="url(#clip0)">
<path d="M42.1309 -0.000183105H10.8691C4.8759 -0.000183105 0 4.87571 0 10.869V42.1307C0 48.1239 4.8759 52.9998 10.8691 52.9998H42.1309C48.1241 52.9998 53 48.1239 53 42.1307V10.869C53 4.87571 48.1241 -0.000183105 42.1309 -0.000183105ZM49.8945 42.1307C49.8945 46.4116 46.4117 49.8943 42.1309 49.8943H10.8691C6.58825 49.8943 3.10547 46.4116 3.10547 42.1307V10.869C3.10547 6.58807 6.58825 3.10529 10.8691 3.10529H42.1309C46.4117 3.10529 49.8945 6.58807 49.8945 10.869V42.1307Z" fill="#FF3359"/>
<path d="M31.6391 12.7872C31.4602 12.1195 31.032 11.5614 30.4334 11.2158C29.1978 10.5024 27.612 10.9271 26.8983 12.1631L26.5 12.8529L26.1017 12.163C25.3881 10.9273 23.8024 10.5024 22.5666 11.2157H22.5665C21.3307 11.9293 20.9059 13.515 21.6193 14.7509L23.5117 18.0286L16.5292 30.1229H11.4385C10.0115 30.1229 8.85059 31.2838 8.85059 32.7108C8.85059 34.1377 10.0115 35.2986 11.4385 35.2986H31.092L28.1037 30.1229H22.5056L31.3806 14.751C31.7262 14.1524 31.8181 13.4549 31.6391 12.7872Z" fill="#FF3359"/>
<path d="M41.5614 30.1228H36.4707L30.6835 20.099L27.6953 25.2748L36.6809 40.8381C37.0265 41.4369 37.5845 41.8651 38.2524 42.0441C38.4753 42.1038 38.7015 42.1334 38.9263 42.1334C39.3748 42.1334 39.8174 42.0158 40.2163 41.7855C41.452 41.072 41.8768 39.4861 41.1633 38.2505L39.4589 35.2986H41.5614C42.9884 35.2986 44.1493 34.1377 44.1493 32.7107C44.1493 31.2838 42.9884 30.1228 41.5614 30.1228Z" fill="#FF3359"/>
<path d="M12.3456 37.369L11.8366 38.2505C11.1232 39.4863 11.5481 41.0721 12.7839 41.7856C13.1904 42.0202 13.6347 42.1318 14.0735 42.1317C14.9685 42.1317 15.8402 41.6676 16.3191 40.8383L18.3221 37.369H12.3456Z" fill="#FF3359"/>
</g>
<defs>
<clipPath id="clip0">
<rect width="53" height="53" fill="white" transform="translate(0 -0.000183105)"/>
</clipPath>
</defs>
</svg>
