<svg width="12" height="12" viewBox="0 0 12 12" fill="none" xmlns="http://www.w3.org/2000/svg">
<path d="M6.02738 0C6.02417 0 6.01774 0 6.00809 0C2.75435 0 0.108276 2.64607 0.108276 5.8998C0.108276 7.22766 0.561614 8.51693 1.39112 9.55543L0.532677 11.552C0.461944 11.716 0.539108 11.9057 0.699866 11.9732C0.757738 11.9989 0.822042 12.0054 0.88313 11.9957L4.03077 11.4427C4.66094 11.671 5.32326 11.7867 5.99202 11.7835C9.24576 11.7835 11.8918 9.13746 11.8918 5.88373C11.8983 2.63964 9.27148 0.00321515 6.02738 0ZM4.00826 4.71341H5.74445C5.92128 4.71341 6.06596 4.85809 6.06596 5.03493C6.06596 5.21176 5.92128 5.35644 5.74445 5.35644H4.00826C3.83143 5.35644 3.68675 5.21176 3.68675 5.03493C3.68675 4.85809 3.83143 4.71341 4.00826 4.71341ZM7.99506 6.96402H4.00826C3.83143 6.96402 3.68675 6.81933 3.68675 6.6425C3.68675 6.46567 3.83143 6.32099 4.00826 6.32099H7.99506C8.17189 6.32099 8.31658 6.46567 8.31658 6.6425C8.31658 6.81933 8.17189 6.96402 7.99506 6.96402Z" fill="white"/>
</svg>
