<svg width="18" height="18" viewBox="0 0 18 18" fill="none" xmlns="http://www.w3.org/2000/svg">
<g opacity="0.6" clip-path="url(#clip0)">
<path d="M9.0003 6.10315C7.40208 6.10315 6.10352 7.40171 6.10352 8.99994C6.10352 10.5982 7.40208 11.8967 9.0003 11.8967C10.5985 11.8967 11.8971 10.5982 11.8971 8.99994C11.8971 7.40171 10.5985 6.10315 9.0003 6.10315ZM8.78055 8.14089C8.42094 8.14089 8.12128 8.44056 8.12128 8.80016H7.16234C7.18232 7.90115 7.90152 7.18195 8.78055 7.18195V8.14089Z" fill="black"/>
<path d="M17.7902 8.40065C16.8113 7.182 13.3152 3.20642 9 3.20642C4.68479 3.20642 1.18868 7.182 0.209767 8.40065C-0.0699223 8.74027 -0.0699223 9.23972 0.209767 9.59932C1.18868 10.818 4.68479 14.7935 9 14.7935C13.3152 14.7935 16.8113 10.818 17.7902 9.59932C18.0699 9.25969 18.0699 8.76025 17.7902 8.40065ZM9 13.1953C6.68258 13.1953 4.80466 11.3174 4.80466 8.99998C4.80466 6.68256 6.68258 4.80464 9 4.80464C11.3174 4.80464 13.1953 6.68256 13.1953 8.99998C13.1953 11.3174 11.3174 13.1953 9 13.1953Z" fill="black"/>
</g>
<defs>
<clipPath id="clip0">
<rect width="18" height="18" fill="white"/>
</clipPath>
</defs>
</svg>
