<svg width="20" height="20" viewBox="0 0 20 20" fill="none" xmlns="http://www.w3.org/2000/svg">
<path fill-rule="evenodd" clip-rule="evenodd" d="M4.16675 3.33341C3.70651 3.33341 3.33341 3.70651 3.33341 4.16675V15.8334C3.33341 16.2937 3.70651 16.6667 4.16675 16.6667H15.8334C16.2937 16.6667 16.6667 16.2937 16.6667 15.8334V4.16675C16.6667 3.70651 16.2937 3.33341 15.8334 3.33341H4.16675ZM1.66675 4.16675C1.66675 2.78604 2.78604 1.66675 4.16675 1.66675H15.8334C17.2141 1.66675 18.3334 2.78604 18.3334 4.16675V15.8334C18.3334 17.2141 17.2141 18.3334 15.8334 18.3334H4.16675C2.78604 18.3334 1.66675 17.2141 1.66675 15.8334V4.16675Z" fill="#9E9E9E"/>
<path fill-rule="evenodd" clip-rule="evenodd" d="M1.66675 7.50008C1.66675 7.03984 2.03984 6.66675 2.50008 6.66675H17.5001C17.9603 6.66675 18.3334 7.03984 18.3334 7.50008C18.3334 7.96032 17.9603 8.33342 17.5001 8.33342H2.50008C2.03984 8.33342 1.66675 7.96032 1.66675 7.50008Z" fill="#9E9E9E"/>
<path fill-rule="evenodd" clip-rule="evenodd" d="M7.50008 6.66675C7.96032 6.66675 8.33342 7.03984 8.33342 7.50008V17.5001C8.33342 17.9603 7.96032 18.3334 7.50008 18.3334C7.03984 18.3334 6.66675 17.9603 6.66675 17.5001V7.50008C6.66675 7.03984 7.03984 6.66675 7.50008 6.66675Z" fill="#9E9E9E"/>
</svg>
