<svg width="34" height="34" viewBox="0 0 34 34" fill="none" xmlns="http://www.w3.org/2000/svg">
<path d="M26.8229 0V2.08164H29.1711L24.5902 6.4252C22.9685 4.76571 20.7072 3.73376 18.2091 3.73376C14.8488 3.73376 11.9165 5.60057 10.394 8.35132C10.2636 8.34561 10.1325 8.34215 10.0006 8.34215C5.07869 8.34215 1.07446 12.3464 1.07446 17.2683C1.07446 21.8382 4.52652 25.6163 8.95974 26.1334V28.8997H5.84349V30.9814H8.95987V34H11.0415V30.9813H14.2939V28.8997H11.0415V26.1334C13.9599 25.7929 16.4528 24.0394 17.8158 21.5769C17.9462 21.5826 18.0772 21.586 18.2091 21.586C23.131 21.586 27.1353 17.5818 27.1353 12.6599C27.1353 10.9873 26.6725 9.42099 25.8688 8.08157L30.8439 3.36421V5.9496H32.9255V0H26.8229ZM10.0007 24.1128C6.22666 24.1128 3.15623 21.0423 3.15623 17.2682C3.15623 13.6412 5.99211 10.6646 9.5629 10.4381C9.38022 11.1487 9.283 11.8931 9.283 12.6599C9.283 16.6751 11.948 20.0792 15.602 21.1972C14.3625 22.9592 12.3139 24.1128 10.0007 24.1128ZM16.5381 19.2977C13.5692 18.5499 11.3647 15.8577 11.3647 12.6599C11.3647 11.9536 11.4723 11.2719 11.6718 10.6304C14.6408 11.3782 16.8453 14.0705 16.8453 17.2683C16.8453 17.9746 16.7376 18.6562 16.5381 19.2977ZM18.647 19.4899C18.8297 18.7794 18.9269 18.035 18.9269 17.2682C18.9269 13.253 16.2619 9.84891 12.608 8.73083C13.8475 6.96894 15.8961 5.81526 18.2093 5.81526C21.9834 5.81526 25.0538 8.88569 25.0538 12.6598C25.0537 16.2869 22.2178 19.2635 18.647 19.4899Z" fill="#FDB74F"/>
</svg>
