<svg width="34" height="34" viewBox="0 0 34 34" fill="none" xmlns="http://www.w3.org/2000/svg">
<g clip-path="url(#clip0)">
<path d="M2.78176 9.93468L0.879096 8.99025C0.516968 9.71816 0.263598 10.4952 0.126953 11.2966L2.22084 11.6557C2.32336 11.0578 2.51226 10.4781 2.78176 9.93468Z" fill="#CD2DA0"/>
<path d="M31.7872 11.6961L33.8832 11.3477C33.7486 10.5462 33.4981 9.76852 33.1395 9.03922L31.2273 9.97089C31.4961 10.516 31.6846 11.0971 31.7872 11.6961Z" fill="#CD2DA0"/>
<path d="M33.3655 19.5602C33.0759 18.962 32.6939 18.4132 32.2337 17.9338C33.1643 16.7214 33.7513 15.2809 33.9331 13.7635L31.8233 13.5127C31.6514 14.9379 31.0035 16.2634 29.9844 17.2745L29.0984 18.1531L30.1065 18.8872C32.0006 20.243 32.4368 22.8775 31.081 24.7715C30.5979 25.4464 29.9263 25.9639 29.1504 26.2588L29.1217 26.2694C28.6442 26.4563 28.1366 26.5546 27.6238 26.5594C25.6057 26.555 23.8672 25.1362 23.4583 23.1599L21.3772 23.5849C21.9894 26.5492 24.5969 28.6778 27.6238 28.6841C27.6876 28.6841 27.7492 28.6767 27.8129 28.6746C26.0833 31.7117 22.2191 32.7717 19.182 31.0421C18.7804 30.8134 18.405 30.5413 18.0627 30.2309V21.6631C18.8631 20.7351 20.0243 20.1967 21.2497 20.1854C22.5886 20.1794 23.8506 20.8104 24.6492 21.8851L26.349 20.6103C24.4186 18.0202 20.8488 17.2972 18.0627 18.9318V14.1512C19.0577 14.6272 20.1467 14.8741 21.2497 14.8736C23.9045 14.8675 26.3563 13.4517 27.6886 11.1554L25.8497 10.093C24.8977 11.7332 23.1462 12.7445 21.2497 12.7489C20.0952 12.7439 18.9747 12.3574 18.0627 11.6494V4.27243C19.793 1.92531 23.0985 1.4254 25.4456 3.15577C25.8958 3.48769 26.2904 3.88899 26.6146 4.34467C24.7102 4.0986 22.778 4.49167 21.1212 5.46226L22.2058 7.28738C23.986 6.23306 26.1633 6.09482 28.0626 6.91555H28.0742C28.8884 7.27762 29.6176 7.80633 30.2149 8.46765L31.7861 7.03772C31.1065 6.29016 30.2988 5.66988 29.4011 5.20624C28.1805 1.29766 24.0226 -0.881354 20.114 0.339218C18.9323 0.708252 17.8619 1.36724 17.0003 2.25609C14.1504 -0.684089 9.45666 -0.757325 6.51641 2.09256C5.62749 2.95412 4.9685 4.02457 4.59954 5.20624C3.71825 5.66245 2.92342 6.26892 2.25068 6.99842L3.8134 8.4379C4.40699 7.79279 5.12646 7.27616 5.92747 6.9198C7.82775 6.09622 10.0078 6.23373 11.7895 7.2895L12.8742 5.46439C11.2191 4.49413 9.28894 4.10033 7.38608 4.34467C9.08305 1.96541 12.3875 1.41226 14.7668 3.10923C15.2145 3.42846 15.6096 3.81556 15.938 4.2565V8.49952C15.9378 10.2597 14.5108 11.6864 12.7506 11.6862C11.8361 11.6862 10.9656 11.2932 10.3607 10.6072L8.76713 12.0127C9.77543 13.1561 11.2264 13.8112 12.7509 13.8113C13.904 13.8073 15.024 13.4244 15.938 12.7213V16.8071C12.9137 15.0342 9.02475 16.0488 7.25196 19.0731C6.89554 19.6811 6.6429 20.3442 6.50433 21.0352L8.58759 21.4602C9.04241 19.1727 11.2655 17.6872 13.5529 18.142C14.482 18.3268 15.3221 18.8186 15.938 19.5384V30.2415C13.3358 32.5854 9.32626 32.3759 6.98245 29.7736C6.67902 29.4367 6.41263 29.0683 6.18775 28.6746C6.25149 28.6746 6.3131 28.6841 6.37685 28.6841C9.40374 28.6778 12.0112 26.5492 12.6235 23.5849L10.5423 23.1599C10.1334 25.1362 8.39498 26.555 6.37685 26.5594C5.863 26.555 5.35427 26.4567 4.87575 26.2694L4.84706 26.2588C2.66985 25.431 1.57589 22.995 2.40366 20.8178C2.69866 20.0419 3.21603 19.3703 3.89095 18.8872L4.89806 18.1531L4.01312 17.2745C2.98517 16.2524 2.33488 14.9114 2.16888 13.4713L0.0558726 13.705C0.23189 15.2438 0.82395 16.7056 1.76838 17.9332C-0.656498 20.4551 -0.577752 24.4654 1.9442 26.8902C2.42451 27.352 2.97467 27.7351 3.57437 28.0255C4.95927 32.4992 9.70864 35.0032 14.1824 33.6183C15.2083 33.3007 16.1646 32.7911 17.0003 32.1166C20.6458 35.0564 25.9843 34.4844 28.9241 30.8389C29.5979 30.0034 30.1069 29.0477 30.4242 28.0223C33.5732 26.4978 34.89 22.7092 33.3655 19.5602Z" fill="#CD2DA0"/>
</g>
<defs>
<clipPath id="clip0">
<rect width="34" height="34" fill="white"/>
</clipPath>
</defs>
</svg>
