<svg width="20" height="20" viewBox="0 0 20 20" fill="none" xmlns="http://www.w3.org/2000/svg">
<path fill-rule="evenodd" clip-rule="evenodd" d="M4.1665 3.33341C3.94549 3.33341 3.73353 3.42121 3.57725 3.57749C3.42097 3.73377 3.33317 3.94573 3.33317 4.16675V15.4882L5.24392 13.5775C5.4002 13.4212 5.61216 13.3334 5.83317 13.3334H15.8332C16.0542 13.3334 16.2661 13.2456 16.4224 13.0893C16.5787 12.9331 16.6665 12.7211 16.6665 12.5001V4.16675C16.6665 3.94573 16.5787 3.73377 16.4224 3.57749C16.2661 3.42121 16.0542 3.33341 15.8332 3.33341H4.1665ZM2.39874 2.39898C2.86758 1.93014 3.50346 1.66675 4.1665 1.66675H15.8332C16.4962 1.66675 17.1321 1.93014 17.6009 2.39898C18.0698 2.86782 18.3332 3.50371 18.3332 4.16675V12.5001C18.3332 13.1631 18.0698 13.799 17.6009 14.2678C17.1321 14.7367 16.4962 15.0001 15.8332 15.0001H6.17835L3.08909 18.0893C2.85076 18.3277 2.49233 18.399 2.18093 18.27C1.86954 18.141 1.6665 17.8371 1.6665 17.5001V4.16675C1.6665 3.50371 1.9299 2.86782 2.39874 2.39898Z" fill="white"/>
</svg>
