<svg width="15" height="15" viewBox="0 0 15 15" fill="none" xmlns="http://www.w3.org/2000/svg">
w<path
d="M7.50002 3.74292C5.42838 3.74292 3.74304 5.42859 3.74304 7.50023C3.74304 9.57186 5.42838 11.2575 7.50002 11.2575C9.57132 11.2575 11.257 9.57219 11.257 7.50023C11.257 5.42826 9.57132 3.74292 7.50002 3.74292Z"
fill="#444444" />
<path
d="M7.50003 2.63862C7.09513 2.63862 6.76697 2.31045 6.76697 1.90589V0.73306C6.76697 0.328167 7.09513 0 7.50003 0C7.90492 0 8.23309 0.328167 8.23309 0.73306V1.90589C8.23309 2.31045 7.90459 2.63862 7.50003 2.63862Z"
fill="#444444" />
<path
d="M7.50003 12.3611C7.09513 12.3611 6.76697 12.6893 6.76697 13.0941V14.2666C6.76697 14.6719 7.09513 15 7.50003 15C7.90492 15 8.23309 14.6719 8.23309 14.2666V13.0941C8.23309 12.6893 7.90459 12.3611 7.50003 12.3611Z"
fill="#444444" />
<path
d="M10.9371 4.06245C10.6512 3.77614 10.6512 3.31212 10.9371 3.0258L11.7665 2.19642C12.0525 1.91044 12.5169 1.91044 12.8032 2.19642C13.0895 2.48274 13.0895 2.94709 12.8032 3.23307L11.9738 4.06245C11.6878 4.34877 11.2238 4.34877 10.9371 4.06245Z"
fill="#444444" />
<path
d="M4.06258 10.9379C3.77626 10.6512 3.31225 10.6512 3.02593 10.9379L2.19655 11.7669C1.91056 12.0529 1.91023 12.5176 2.19655 12.8036C2.48286 13.0896 2.94721 13.0896 3.23319 12.8036L4.06258 11.9739C4.34889 11.6879 4.34889 11.2235 4.06258 10.9379Z"
fill="#444444" />
<path
d="M12.3611 7.49991C12.3611 7.09501 12.6893 6.76685 13.0941 6.76685H14.267C14.6719 6.76685 15 7.09501 15 7.49991C15 7.9048 14.6719 8.23263 14.267 8.23263H13.0941C12.6893 8.23263 12.3611 7.9048 12.3611 7.49991Z"
fill="#444444" />
<path
d="M2.63862 7.49991C2.63862 7.09501 2.31045 6.76685 1.90556 6.76685H0.73306C0.328167 6.76685 0 7.09501 0 7.49991C0 7.9048 0.328167 8.23263 0.73306 8.23263H1.90589C2.31045 8.23263 2.63862 7.9048 2.63862 7.49991Z"
fill="#444444" />
<path
d="M10.9371 10.9379C11.2235 10.6519 11.6878 10.6519 11.9738 10.9379L12.8032 11.7673C13.0895 12.0529 13.0895 12.5176 12.8032 12.8036C12.5169 13.0896 12.0528 13.0896 11.7665 12.8036L10.9371 11.9742C10.6508 11.6879 10.6508 11.2239 10.9371 10.9379Z"
fill="#444444" />
<path
d="M4.06258 4.06261C4.3489 3.7763 4.3489 3.31228 4.06258 3.02597L3.2332 2.19691C2.94688 1.9106 2.48286 1.9106 2.19655 2.19691C1.91023 2.4829 1.91023 2.94725 2.19655 3.23323L3.02593 4.06261C3.31225 4.34926 3.77627 4.34926 4.06258 4.06261Z"
fill="#444444" />
</svg>