<svg width="49" height="49" viewBox="0 0 49 49" fill="none" xmlns="http://www.w3.org/2000/svg">
<g clip-path="url(#clip0)">
<path d="M24.4997 48.9997C38.0305 48.9997 48.9994 38.0308 48.9994 24.5C48.9994 10.9692 38.0305 0.000305176 24.4997 0.000305176C10.9689 0.000305176 0 10.9692 0 24.5C0 38.0308 10.9689 48.9997 24.4997 48.9997Z" fill="#41B4E6"/>
<path d="M49 24.5003C49 23.9033 48.9775 23.3117 48.9356 22.7254L38.7816 12.5715L10.2184 23.807L21.1468 34.7355L21.2902 35.2516L21.4757 35.0645L21.4765 35.0652L21.2902 35.2516L33.3791 47.3405C42.5207 43.7842 49 34.8994 49 24.5003Z" fill="#0091C8"/>
<path d="M22.1207 28.0697L33.1927 36.4291L38.7817 12.5715L10.2184 23.807L18.9099 26.6858L34.772 16.0459L22.1207 28.0697Z" fill="white"/>
<path d="M18.9098 26.6859L21.2902 35.2517L22.1206 28.0698L34.7719 16.046L18.9098 26.6859Z" fill="#D2D2D7"/>
<path d="M25.719 30.7865L21.2902 35.2516L22.1206 28.0697L25.719 30.7865Z" fill="#B9B9BE"/>
</g>
<defs>
<clipPath id="clip0">
<rect width="49" height="49" fill="white"/>
</clipPath>
</defs>
</svg> 