<svg width="21" height="21" viewBox="0 0 21 21" fill="none" xmlns="http://www.w3.org/2000/svg">
<g clip-path="url(#clip0)">
<path d="M20.5608 11.9127C20.5699 11.4352 20.4166 10.9783 20.125 10.6023C20.2111 10.5401 20.2931 10.471 20.3702 10.3952C20.7655 10.0069 20.989 9.48823 20.9996 8.93468C21.0104 8.37363 20.7967 7.84079 20.398 7.43441C19.996 7.02466 19.4378 6.78964 18.8664 6.78964H14.867V3.1723C14.867 2.6174 14.6529 2.09375 14.2642 1.69791C13.8759 1.30256 13.3572 1.07903 12.8036 1.06844C12.2429 1.0568 11.7097 1.27139 11.3033 1.67014C10.8936 2.0721 10.6586 2.63032 10.6586 3.20171V3.79111C10.6586 5.145 10.0842 6.444 9.0826 7.35496L7.21499 9.05363H6.01651V8.21334H0V19.9322H6.01651V19.23L7.80578 19.9322H17.5791C18.134 19.9322 18.6576 19.718 19.0535 19.3293C19.4488 18.941 19.6723 18.4223 19.6829 17.8688C19.6921 17.3913 19.5387 16.9343 19.2472 16.5583C19.3333 16.4961 19.4153 16.427 19.4924 16.3513C19.8877 15.963 20.1113 15.4443 20.1219 14.8908C20.131 14.4134 19.9776 13.9564 19.6861 13.5803C19.7722 13.5181 19.8542 13.449 19.9313 13.3733C20.3266 12.9849 20.5501 12.4663 20.5608 11.9127ZM4.78604 18.7017H1.23047V9.44381H4.78604V18.7017ZM18.8958 9.76763H14.6378V10.9981H18.4275C18.6706 10.9981 18.9087 11.0987 19.0808 11.2741C19.2462 11.4427 19.3349 11.6612 19.3306 11.8892C19.3215 12.3615 18.9296 12.7457 18.4569 12.7457H14.6379V13.9761H17.9886C18.2317 13.9761 18.4698 14.0767 18.6419 14.2521C18.8073 14.4207 18.896 14.6392 18.8917 14.8672C18.8826 15.3395 18.4908 15.7237 18.0181 15.7237H14.6379V16.9542H17.5498C17.7929 16.9542 18.031 17.0547 18.203 17.2302C18.3684 17.3988 18.4571 17.6172 18.4528 17.8452C18.4437 18.3175 18.0519 18.7018 17.5792 18.7018H8.03859L6.01651 17.9082V10.2841H7.6909L9.9105 8.26522C11.1679 7.12154 11.889 5.4908 11.889 3.79111V3.20171C11.889 2.95861 11.9896 2.72056 12.165 2.5485C12.3297 2.38693 12.5418 2.2985 12.7641 2.2985C12.7694 2.2985 12.7748 2.29859 12.7801 2.29867C13.2524 2.30773 13.6366 2.6996 13.6366 3.1723V8.02007H18.8664C19.1095 8.02007 19.3476 8.12064 19.5196 8.29607C19.685 8.46468 19.7738 8.68313 19.7694 8.9111C19.7604 9.38339 19.3685 9.76763 18.8958 9.76763Z" fill="white"/>
<path d="M2.94556 17.782C3.28534 17.782 3.56079 17.5065 3.56079 17.1667C3.56079 16.827 3.28534 16.5515 2.94556 16.5515C2.60577 16.5515 2.33032 16.827 2.33032 17.1667C2.33032 17.5065 2.60577 17.782 2.94556 17.782Z" fill="white"/>
</g>
<defs>
<clipPath id="clip0">
<rect width="21" height="21" fill="white"/>
</clipPath>
</defs>
</svg>
