<svg width="20" height="20" viewBox="0 0 20 20" fill="none" xmlns="http://www.w3.org/2000/svg">
<path fill-rule="evenodd" clip-rule="evenodd" d="M1.22039 12.8871C2.00179 12.1057 3.0616 11.6667 4.16667 11.6667H10C11.1051 11.6667 12.1649 12.1057 12.9463 12.8871C13.7277 13.6685 14.1667 14.7283 14.1667 15.8334V17.5001C14.1667 17.9603 13.7936 18.3334 13.3333 18.3334C12.8731 18.3334 12.5 17.9603 12.5 17.5001V15.8334C12.5 15.1704 12.2366 14.5345 11.7678 14.0656C11.2989 13.5968 10.663 13.3334 10 13.3334H4.16667C3.50363 13.3334 2.86774 13.5968 2.3989 14.0656C1.93006 14.5345 1.66667 15.1704 1.66667 15.8334V17.5001C1.66667 17.9603 1.29357 18.3334 0.833333 18.3334C0.373096 18.3334 0 17.9603 0 17.5001V15.8334C0 14.7283 0.438987 13.6685 1.22039 12.8871Z" fill="#9E9E9E"/>
<path fill-rule="evenodd" clip-rule="evenodd" d="M7.08333 3.33341C5.70262 3.33341 4.58333 4.4527 4.58333 5.83342C4.58333 7.21413 5.70262 8.33342 7.08333 8.33342C8.46404 8.33342 9.58333 7.21413 9.58333 5.83342C9.58333 4.4527 8.46404 3.33341 7.08333 3.33341ZM2.91667 5.83342C2.91667 3.53223 4.78215 1.66675 7.08333 1.66675C9.38452 1.66675 11.25 3.53223 11.25 5.83342C11.25 8.1346 9.38452 10.0001 7.08333 10.0001C4.78215 10.0001 2.91667 8.1346 2.91667 5.83342Z" fill="#9E9E9E"/>
<path fill-rule="evenodd" clip-rule="evenodd" d="M19.7559 6.91083C20.0814 7.23626 20.0814 7.7639 19.7559 8.08934L16.4226 11.4227C16.0972 11.7481 15.5695 11.7481 15.2441 11.4227L13.5774 9.756C13.252 9.43057 13.252 8.90293 13.5774 8.57749C13.9028 8.25206 14.4305 8.25206 14.7559 8.57749L15.8333 9.6549L18.5774 6.91083C18.9028 6.58539 19.4305 6.58539 19.7559 6.91083Z" fill="#9E9E9E"/>
</svg>
