<svg width="50" height="50" viewBox="0 0 50 50" fill="none" xmlns="http://www.w3.org/2000/svg">
<rect width="50" height="50" rx="25" fill="#4680C2"/>
<path fill-rule="evenodd" clip-rule="evenodd" d="M40.2322 16.6402C40.4693 15.8795 40.2322 15.3262 39.1821 15.3262H35.693C34.8123 15.3262 34.4058 15.8103 34.1687 16.3291C34.1687 16.3291 32.3733 20.7553 29.8666 23.6254C29.0536 24.4553 28.681 24.732 28.2407 24.732C28.0035 24.732 27.6987 24.4553 27.6987 23.6946V16.6056C27.6987 15.7066 27.4277 15.2916 26.6824 15.2916H21.1948C20.6528 15.2916 20.3141 15.7066 20.3141 16.1216C20.3141 16.9861 21.5674 17.1935 21.7029 19.6141V24.8703C21.7029 26.0115 21.4997 26.2189 21.0593 26.2189C19.8737 26.2189 16.9944 21.7581 15.2668 16.6749C14.928 15.672 14.5893 15.2916 13.7086 15.2916H10.1856C9.16938 15.2916 9 15.7758 9 16.2945C9 17.2281 10.1856 21.931 14.5215 28.1555C17.4009 32.4088 21.4997 34.691 25.192 34.691C27.4277 34.691 27.6987 34.1723 27.6987 33.3079V30.092C27.6987 29.0545 27.9019 28.8817 28.6133 28.8817C29.1214 28.8817 30.036 29.1582 32.1023 31.1985C34.4735 33.6191 34.88 34.7256 36.2011 34.7256H39.6902C40.7064 34.7256 41.1807 34.207 40.9097 33.2041C40.6048 32.2013 39.4531 30.749 37.9626 29.0199C37.1496 28.0517 35.9301 26.9798 35.5575 26.461C35.0494 25.7695 35.1849 25.4928 35.5575 24.8703C35.5237 24.8703 39.7918 18.7151 40.2322 16.6402Z" fill="white"/>
</svg>