<svg width="34" height="34" viewBox="0 0 34 34" fill="none" xmlns="http://www.w3.org/2000/svg">
<path d="M31.9414 27.2652C31.9414 26.0779 31.9414 17.9317 31.9414 16.9336C31.9414 13.0889 28.8135 9.96094 24.9688 9.96094C21.1194 9.96094 17.9961 13.0936 17.9961 16.9336C17.9961 17.9402 17.9961 26.0675 17.9961 27.3149C17.6103 27.7987 17.2774 28.3154 17 28.8578C16.582 28.0408 16.0385 27.2818 15.3784 26.6064C14.625 25.8358 13.7636 25.2187 12.83 24.7699C14.7392 23.5247 16.0039 21.3703 16.0039 18.9258V16.9336C16.0039 13.0889 12.876 9.96094 9.03125 9.96094H0.996094C0.445984 9.96094 0 10.4069 0 10.957C0 12.8766 0.787246 14.6175 2.05859 15.8796V18.9258C2.05859 21.3679 3.32084 23.5204 5.2269 24.7663C2.23338 26.1938 0 29.3192 0 33.0039C0 33.554 0.445984 34 0.996094 34C1.89895 34 32.101 34 33.0039 34C33.554 34 34 33.554 34 33.0039C34 30.9021 33.2746 28.8952 31.9414 27.2652ZM2.09359 11.9531H9.03125C11.4364 11.9531 13.4489 13.667 13.9116 15.9375H7.03906C4.60102 15.9375 2.56189 14.2202 2.09359 11.9531ZM4.05078 18.9258V17.2692C4.95836 17.6925 5.97118 17.9297 7.03906 17.9297H14.0117V18.9258C14.0117 21.672 11.7775 23.9062 9.03125 23.9062C6.28502 23.9062 4.05078 21.672 4.05078 18.9258ZM2.06457 32.0078C2.56102 28.6073 5.54964 25.8984 9.03125 25.8984C12.5444 25.8984 15.459 28.5595 15.9356 32.0078H2.06457ZM24.9688 11.9531C27.3739 11.9531 29.3862 13.6669 29.849 15.9375H27.2413C25.0505 15.9375 23.0072 14.9171 21.6924 13.1873C22.5688 12.4198 23.715 11.9531 24.9688 11.9531ZM19.9883 16.9336C19.9883 16.1807 20.1571 15.4668 20.4574 14.8264C22.1487 16.7869 24.6124 17.9297 27.2413 17.9297H29.9492V18.9258C29.9492 21.672 27.715 23.9062 24.9688 23.9062C22.2225 23.9062 19.9883 21.672 19.9883 18.9258V16.9336ZM29.9492 23.8002V25.4405C29.5724 25.185 29.1793 24.96 28.7731 24.7662C29.1998 24.4874 29.5941 24.163 29.9492 23.8002ZM19.9883 23.8002C20.345 24.1647 20.7412 24.4902 21.17 24.7699C20.7613 24.9664 20.3663 25.195 19.9883 25.4548V23.8002ZM18.0644 32.0078C18.541 28.5595 21.4556 25.8984 24.9688 25.8984C28.4504 25.8984 31.439 28.6073 31.9354 32.0078H18.0644Z" fill="#0091C8"/>
<path d="M19.471 0C18.5089 0 17.6625 0.391398 16.9999 1.13721C16.3374 0.391398 15.491 0 14.5289 0C12.5847 0 11.0618 1.6158 11.0618 3.67851C11.0617 5.84375 12.7452 7.26458 15.0751 9.23113C15.4816 9.57425 15.902 9.92906 16.3476 10.3152C16.5348 10.4774 16.7673 10.5586 16.9999 10.5586C17.2326 10.5586 17.4651 10.4774 17.6523 10.3152C18.0979 9.929 18.5184 9.57419 18.9249 9.231C21.0855 7.40748 22.9382 5.92317 22.9382 3.67844C22.9382 1.6158 21.4152 0 19.471 0ZM17.6399 7.70864C17.4309 7.88508 17.2182 8.06457 16.9999 8.25018C16.7816 8.06457 16.569 7.88514 16.36 7.70877C14.1271 5.82416 13.0538 4.86559 13.0538 3.67851C13.0539 2.84053 13.5606 1.99219 14.5289 1.99219C15.5985 1.99219 16.0121 3.31042 16.0408 3.40638C16.1566 3.84286 16.5482 4.147 17 4.147C17.4518 4.147 17.8434 3.84293 17.9593 3.40638C17.9878 3.31042 18.4014 1.99219 19.471 1.99219C20.4393 1.99219 20.9459 2.84053 20.9459 3.67851C20.9459 4.91552 19.6899 5.97836 17.6399 7.70864Z" fill="#0091C8"/>
</svg>
