<svg width="49" height="49" viewBox="0 0 49 49" fill="none" xmlns="http://www.w3.org/2000/svg">
<path d="M49 24.5C49 10.9676 38.0324 0 24.5 0C10.9676 0 0 10.9676 0 24.5C0 36.7309 8.95781 46.8658 20.6719 48.7033V31.582H14.4511V24.5H20.6719V19.1023C20.6719 12.9629 24.3278 9.57031 29.9263 9.57031C32.606 9.57031 35.4102 10.0488 35.4102 10.0488V16.0781H32.319C29.2756 16.0781 28.3281 17.9683 28.3281 19.9062V24.5H35.123L34.0368 31.582H28.3281V48.7033C40.0422 46.8658 49 36.7309 49 24.5Z" fill="#1877F2"/>
<path d="M34.0369 31.582L35.123 24.5H28.3282V19.9062C28.3282 17.9683 29.2756 16.0781 32.319 16.0781H35.4102V10.0488C35.4102 10.0488 32.6061 9.57031 29.9264 9.57031C24.3278 9.57031 20.6719 12.9629 20.6719 19.1023V24.5H14.4512V31.582H20.6719V48.7033C21.9208 48.8996 23.1985 49 24.5 49C25.8016 49 27.0793 48.8996 28.3282 48.7033V31.582H34.0369Z" fill="white"/>
</svg>