<svg width="53" height="53" viewBox="0 0 53 53" fill="none" xmlns="http://www.w3.org/2000/svg">
<g clip-path="url(#clip0)">
<path d="M10.1553 0.67526C8.78991 -0.146662 7.16263 -0.220159 5.74341 0.464086L29.5388 24.3102L37.3191 16.4936L10.1553 0.67526ZM3.55714 2.67106C3.25694 3.30665 3.09546 4.01367 3.09546 4.74139V48.3612C3.09546 49.0921 3.25798 49.7887 3.56128 50.4109L27.3473 26.512L3.55714 2.67106ZM29.542 28.7107L5.78492 52.5806C6.41534 52.8725 7.08613 52.9998 7.75588 52.9998C8.58298 52.9998 9.40801 52.8021 10.1554 52.3528L37.3244 36.5106L29.542 28.7107ZM47.6647 22.5183C47.6553 22.5121 47.645 22.5059 47.6357 22.5007L40.0934 18.1085L31.7324 26.5089L40.0986 34.8927C40.0986 34.8927 47.6553 30.487 47.6647 30.4818C49.0673 29.6299 49.9048 28.1413 49.9048 26.4996C49.9048 24.8578 49.0673 23.3692 47.6647 22.5183Z" fill="#FF3359"/>
</g>
<defs>
<clipPath id="clip0">
<rect width="53" height="53" fill="white" transform="translate(0 -0.000183105)"/>
</clipPath>
</defs>
</svg>
