<svg width="34" height="34" viewBox="0 0 34 34" fill="none" xmlns="http://www.w3.org/2000/svg">
<g clip-path="url(#clip0)">
<path d="M29.3643 13.7581C29.9614 13.271 30.7868 12.826 31.8095 12.826L33.8005 12.823L33.7976 10.8298L31.808 10.8328C29.8436 10.8328 28.1439 11.8712 26.9453 13.4003C25.7112 13.5276 24.1653 14.1311 22.4789 15.8175C21.4432 16.8532 20.8592 17.9165 20.5296 18.792L16.9935 15.2498C17.6931 14.9863 18.4864 14.5353 19.2544 13.7673C21.7139 11.3076 21.601 9.15069 21.3149 8.08385C21.312 8.07289 21.3089 8.06179 21.3059 8.05089C22.2612 5.69941 21.3632 2.77707 19.4897 0.903633L18.6142 0.0266113L17.2036 1.4349L18.0797 2.31245C18.9783 3.21106 19.5812 4.43305 19.681 5.65204C18.0461 4.36262 15.7566 4.22841 14.3895 5.59796C13.226 6.76333 13.226 8.65963 14.3895 9.82507C15.6339 11.0716 17.3921 11.2051 19.2968 10.2274C19.0553 10.9168 18.5681 11.6348 17.845 12.3579C16.8507 13.3522 15.8492 13.5676 15.3556 13.6092L9.07778 7.32084L0.199463 33.9999L26.8339 25.1069L22.1393 20.4044C22.2456 19.7918 22.614 18.5012 23.8883 17.2269C24.4673 16.6478 25.051 16.2 25.6246 15.8887C25.2904 16.9426 25.2041 18.0248 25.4029 19.0054C25.8678 21.2984 27.4173 22.2594 28.8326 22.2593C30.8144 22.2593 32.5924 20.408 32.2242 17.582C32.003 15.8844 30.8963 14.4203 29.3643 13.7581ZM18.9264 8.14032C17.9783 8.75411 16.6744 9.29261 15.8 8.41679C15.4118 8.02784 15.4117 7.39512 15.8001 7.00618C16.5802 6.22476 18.3193 6.67789 19.0988 7.93409C19.0449 8.00558 18.9874 8.07442 18.9264 8.14032ZM18.6965 19.7771H7.03319L8.02814 16.7872H15.7117L18.6965 19.7771ZM9.94908 11.0149L13.7219 14.794H8.69149L9.94908 11.0149ZM4.51049 27.3579H13.7987L3.3495 30.8468L4.51049 27.3579ZM19.7685 25.3647H5.17384L6.36991 21.7703H20.6864L23.1482 24.2362L19.7685 25.3647ZM29.0109 20.2517C28.2344 20.381 27.5849 19.7363 27.3564 18.6094C27.1603 17.6421 27.4068 16.4645 27.994 15.4124C29.2035 15.6356 30.0923 16.6469 30.2477 17.8397C30.4411 19.3234 29.7421 20.1301 29.0109 20.2517Z" fill="#D8621F"/>
<path d="M30.0183 5.97969C31.665 5.97969 33.0048 4.63845 33.0048 2.98985C33.0048 1.34125 31.665 0 30.0183 0C28.3715 0 27.0317 1.34125 27.0317 2.98985C27.0317 4.63845 28.3715 5.97969 30.0183 5.97969ZM30.0183 1.99323C30.5659 1.99323 31.0115 2.44031 31.0115 2.98985C31.0115 3.53938 30.5659 3.98646 30.0183 3.98646C29.4706 3.98646 29.025 3.53938 29.025 2.98985C29.025 2.44031 29.4706 1.99323 30.0183 1.99323Z" fill="#D8621F"/>
<path d="M26.3757 7.30859H28.3656V9.30182H26.3757V7.30859Z" fill="#D8621F"/>
<path d="M23.0537 3.25562H25.0436V5.24885H23.0537V3.25562Z" fill="#D8621F"/>
<path d="M22.7197 10.2983H24.7096V12.2916H22.7197V10.2983Z" fill="#D8621F"/>
</g>
<defs>
<clipPath id="clip0">
<rect width="34" height="34" fill="white"/>
</clipPath>
</defs>
</svg>
